<svg width="196" height="27" viewBox="0 0 196 27" fill="none" xmlns="http://www.w3.org/2000/svg">
<mask id="path-1-outside-1_4791_65" maskUnits="userSpaceOnUse" x="50.2242" y="1.97998" width="143" height="25" fill="black">
<rect fill="white" x="50.2242" y="1.97998" width="143" height="25"/>
<path d="M58.9532 20.23C57.4842 20.23 56.1731 20.0383 55.0201 19.655C53.867 19.2717 52.935 18.712 52.2242 17.976L54.5462 15.998C55.0832 16.4887 55.7466 16.872 56.5365 17.148C57.342 17.4087 58.2029 17.539 59.119 17.539C59.4034 17.539 59.6798 17.5237 59.9483 17.493C60.2169 17.4623 60.4538 17.401 60.6591 17.309C60.8803 17.217 61.0461 17.1097 61.1567 16.987C61.2831 16.849 61.3462 16.6957 61.3462 16.527C61.3462 16.2203 61.133 15.9827 60.7065 15.814C60.4379 15.722 60.0747 15.6377 59.6166 15.561C59.1585 15.469 58.6689 15.377 58.1476 15.285C57.2156 15.1163 56.4022 14.9323 55.7072 14.733C55.0121 14.5337 54.4357 14.2653 53.9776 13.928C53.5511 13.606 53.2194 13.238 52.9824 12.824C52.7613 12.41 52.6507 11.9117 52.6507 11.329C52.6507 10.731 52.8086 10.202 53.1246 9.74198C53.4563 9.28198 53.8985 8.88328 54.4514 8.54598C55.0201 8.20868 55.6677 7.95568 56.3943 7.78698C57.1209 7.61828 57.8949 7.53398 58.7163 7.53398C59.4902 7.53398 60.2563 7.60298 61.0145 7.74098C61.7727 7.87898 62.4993 8.08598 63.1943 8.36198C63.8894 8.63798 64.4975 8.98298 65.0187 9.39698L63.0759 11.628C62.7125 11.3673 62.2782 11.1297 61.7727 10.915C61.2831 10.685 60.7539 10.5087 60.1852 10.386C59.6324 10.248 59.0796 10.179 58.5267 10.179C58.2266 10.179 57.9501 10.1943 57.6974 10.225C57.4447 10.2557 57.2078 10.3093 56.9866 10.386C56.7813 10.4627 56.6155 10.5623 56.4891 10.685C56.3785 10.8077 56.3232 10.9533 56.3232 11.122C56.3232 11.2447 56.3627 11.3673 56.4417 11.49C56.5207 11.5973 56.6392 11.697 56.7971 11.789C57.034 11.927 57.3894 12.0573 57.8633 12.18C58.3529 12.2873 58.9295 12.4023 59.5929 12.525C60.6512 12.6937 61.5515 12.9083 62.294 13.169C63.0364 13.4297 63.6208 13.7287 64.0473 14.066C64.4264 14.342 64.6949 14.6563 64.8529 15.009C65.0108 15.3617 65.0898 15.7603 65.0898 16.205C65.0898 17.0023 64.8292 17.7077 64.3079 18.321C63.7867 18.919 63.0601 19.3867 62.1281 19.724C61.212 20.0613 60.1536 20.23 58.9532 20.23ZM70.3126 20V2.97998H74.0561V10.777L73.0847 11.099C73.2426 10.455 73.5823 9.87228 74.1035 9.35098C74.6405 8.81428 75.296 8.37728 76.0701 8.03998C76.8598 7.70268 77.7049 7.53398 78.6053 7.53398C79.7426 7.53398 80.6903 7.75628 81.4485 8.20098C82.2067 8.63028 82.7832 9.22828 83.1781 9.99498C83.573 10.7617 83.7704 11.6433 83.7704 12.64V20H79.9795V13.307C79.9795 12.7397 79.861 12.2567 79.6241 11.858C79.4029 11.4593 79.087 11.1603 78.6764 10.961C78.2656 10.7463 77.776 10.6313 77.2074 10.616C76.765 10.616 76.3465 10.6927 75.9516 10.846C75.5725 10.9993 75.2408 11.2063 74.9565 11.467C74.6879 11.7277 74.4826 12.019 74.3404 12.341C74.1983 12.663 74.1272 13.008 74.1272 13.376V20H72.2317C71.6788 20 71.2444 20 70.9286 20C70.6126 20 70.4073 20 70.3126 20ZM97.0719 20.23C95.5555 20.23 94.205 19.9617 93.0203 19.425C91.8356 18.873 90.9037 18.1217 90.2244 17.171C89.561 16.205 89.2293 15.1087 89.2293 13.882C89.2293 12.64 89.561 11.5437 90.2244 10.593C90.9037 9.64228 91.8356 8.89868 93.0203 8.36198C94.205 7.80998 95.5555 7.53398 97.0719 7.53398C98.6199 7.53398 99.9783 7.80998 101.147 8.36198C102.316 8.89868 103.232 9.64228 103.896 10.593C104.574 11.5437 104.914 12.64 104.914 13.882C104.914 15.1087 104.574 16.205 103.896 17.171C103.232 18.1217 102.316 18.873 101.147 19.425C99.9783 19.9617 98.6199 20.23 97.0719 20.23ZM97.0955 17.056C97.838 17.056 98.5093 16.9257 99.1095 16.665C99.7255 16.389 100.207 16.0133 100.555 15.538C100.918 15.0627 101.092 14.5107 101.076 13.882C101.092 13.2533 100.918 12.7013 100.555 12.226C100.207 11.7353 99.7255 11.3597 99.1095 11.099C98.5093 10.823 97.838 10.685 97.0955 10.685C96.3374 10.685 95.6502 10.823 95.0342 11.099C94.4182 11.3597 93.9365 11.7353 93.5889 12.226C93.2414 12.7013 93.0677 13.2533 93.0677 13.882C93.0677 14.5107 93.2414 15.0627 93.5889 15.538C93.9365 16.0133 94.4182 16.389 95.0342 16.665C95.6502 16.9257 96.3374 17.056 97.0955 17.056ZM110.48 25.06V7.76398H114.082L114.248 10.524L113.513 10.317C113.623 9.84168 113.94 9.39698 114.461 8.98298C114.982 8.56898 115.63 8.23168 116.404 7.97098C117.177 7.69498 118.023 7.55698 118.939 7.55698C120.234 7.55698 121.364 7.82528 122.327 8.36198C123.307 8.89868 124.072 9.64228 124.625 10.593C125.178 11.5283 125.455 12.6247 125.455 13.882C125.455 15.124 125.17 16.2203 124.602 17.171C124.048 18.1217 123.283 18.8653 122.303 19.402C121.324 19.9387 120.195 20.207 118.915 20.207C117.983 20.207 117.123 20.069 116.333 19.793C115.559 19.517 114.911 19.1567 114.39 18.712C113.884 18.252 113.569 17.7843 113.442 17.309L114.319 16.987V25.06H110.48ZM117.967 17.102C118.726 17.102 119.389 16.9717 119.958 16.711C120.526 16.435 120.961 16.0593 121.261 15.584C121.577 15.0933 121.735 14.526 121.735 13.882C121.735 13.238 121.577 12.6783 121.261 12.203C120.961 11.7123 120.526 11.3367 119.958 11.076C119.404 10.8 118.741 10.662 117.967 10.662C117.209 10.662 116.538 10.8 115.953 11.076C115.385 11.352 114.95 11.7353 114.65 12.226C114.351 12.7013 114.2 13.2533 114.2 13.882C114.2 14.526 114.351 15.0933 114.65 15.584C114.95 16.0593 115.385 16.435 115.953 16.711C116.538 16.9717 117.209 17.102 117.967 17.102ZM131.05 20V2.97998H134.841V20H131.05ZM147.926 20.23C146.332 20.23 144.934 19.9617 143.733 19.425C142.548 18.873 141.624 18.1217 140.96 17.171C140.313 16.2203 139.989 15.147 139.989 13.951C139.989 12.985 140.179 12.111 140.558 11.329C140.953 10.5317 141.49 9.85698 142.169 9.30498C142.849 8.73768 143.638 8.30068 144.538 7.99398C145.455 7.68728 146.426 7.53398 147.452 7.53398C148.464 7.53398 149.395 7.68728 150.248 7.99398C151.118 8.30068 151.868 8.72998 152.499 9.28198C153.147 9.81868 153.636 10.4627 153.968 11.214C154.316 11.9653 154.474 12.7933 154.442 13.698L154.418 14.779H142.548L142.003 12.571H151.338L150.935 13.054V12.594C150.888 12.18 150.707 11.8197 150.39 11.513C150.075 11.2063 149.664 10.9687 149.158 10.8C148.669 10.616 148.116 10.524 147.5 10.524C146.742 10.524 146.063 10.639 145.462 10.869C144.863 11.099 144.389 11.4517 144.041 11.927C143.709 12.387 143.543 12.9697 143.543 13.675C143.543 14.3343 143.741 14.9247 144.135 15.446C144.531 15.952 145.1 16.3583 145.841 16.665C146.584 16.9563 147.452 17.102 148.448 17.102C149.364 17.102 150.123 17.0023 150.722 16.803C151.323 16.5883 151.828 16.343 152.238 16.067L153.921 18.459C153.384 18.8423 152.792 19.1643 152.144 19.425C151.497 19.6857 150.81 19.885 150.082 20.023C149.372 20.161 148.654 20.23 147.926 20.23ZM160.088 20V7.78698H163.69L163.832 10.777L162.884 11.03C163.09 10.4167 163.446 9.84928 163.95 9.32798C164.472 8.79128 165.104 8.36198 165.846 8.03998C166.604 7.70268 167.433 7.53398 168.334 7.53398C169.471 7.53398 170.419 7.74868 171.177 8.17798C171.951 8.60728 172.536 9.21298 172.93 9.99498C173.341 10.7617 173.546 11.651 173.546 12.663V20H169.755V13.261C169.755 12.7243 169.637 12.2567 169.4 11.858C169.179 11.4593 168.855 11.1527 168.428 10.938C168.018 10.7233 167.536 10.6237 166.983 10.639C166.509 10.639 166.083 10.7233 165.704 10.892C165.324 11.0453 164.993 11.2523 164.708 11.513C164.441 11.7737 164.235 12.0573 164.092 12.364C163.967 12.6707 163.903 12.9773 163.903 13.284V20H162.007C161.455 20 161.021 20 160.704 20C160.389 20 160.183 20 160.088 20ZM185.426 20.23C183.957 20.23 182.646 20.0383 181.493 19.655C180.34 19.2717 179.408 18.712 178.697 17.976L181.019 15.998C181.557 16.4887 182.22 16.872 183.009 17.148C183.815 17.4087 184.676 17.539 185.592 17.539C185.876 17.539 186.153 17.5237 186.421 17.493C186.69 17.4623 186.927 17.401 187.132 17.309C187.353 17.217 187.519 17.1097 187.629 16.987C187.756 16.849 187.819 16.6957 187.819 16.527C187.819 16.2203 187.606 15.9827 187.179 15.814C186.911 15.722 186.548 15.6377 186.089 15.561C185.632 15.469 185.142 15.377 184.62 15.285C183.689 15.1163 182.875 14.9323 182.18 14.733C181.486 14.5337 180.909 14.2653 180.45 13.928C180.024 13.606 179.692 13.238 179.455 12.824C179.235 12.41 179.123 11.9117 179.123 11.329C179.123 10.731 179.282 10.202 179.597 9.74198C179.929 9.28198 180.372 8.88328 180.924 8.54598C181.493 8.20868 182.141 7.95568 182.867 7.78698C183.594 7.61828 184.368 7.53398 185.189 7.53398C185.964 7.53398 186.729 7.60298 187.487 7.74098C188.245 7.87898 188.973 8.08598 189.667 8.36198C190.362 8.63798 190.97 8.98298 191.491 9.39698L189.548 11.628C189.186 11.3673 188.751 11.1297 188.245 10.915C187.756 10.685 187.227 10.5087 186.658 10.386C186.106 10.248 185.553 10.179 184.999 10.179C184.7 10.179 184.424 10.1943 184.17 10.225C183.918 10.2557 183.681 10.3093 183.459 10.386C183.254 10.4627 183.088 10.5623 182.962 10.685C182.851 10.8077 182.796 10.9533 182.796 11.122C182.796 11.2447 182.836 11.3673 182.914 11.49C182.994 11.5973 183.112 11.697 183.27 11.789C183.507 11.927 183.862 12.0573 184.336 12.18C184.826 12.2873 185.402 12.4023 186.066 12.525C187.125 12.6937 188.025 12.9083 188.767 13.169C189.509 13.4297 190.093 13.7287 190.52 14.066C190.899 14.342 191.168 14.6563 191.326 15.009C191.484 15.3617 191.562 15.7603 191.562 16.205C191.562 17.0023 191.302 17.7077 190.781 18.321C190.259 18.919 189.533 19.3867 188.601 19.724C187.685 20.0613 186.627 20.23 185.426 20.23Z"/>
</mask>
<path d="M58.9532 20.23C57.4842 20.23 56.1731 20.0383 55.0201 19.655C53.867 19.2717 52.935 18.712 52.2242 17.976L54.5462 15.998C55.0832 16.4887 55.7466 16.872 56.5365 17.148C57.342 17.4087 58.2029 17.539 59.119 17.539C59.4034 17.539 59.6798 17.5237 59.9483 17.493C60.2169 17.4623 60.4538 17.401 60.6591 17.309C60.8803 17.217 61.0461 17.1097 61.1567 16.987C61.2831 16.849 61.3462 16.6957 61.3462 16.527C61.3462 16.2203 61.133 15.9827 60.7065 15.814C60.4379 15.722 60.0747 15.6377 59.6166 15.561C59.1585 15.469 58.6689 15.377 58.1476 15.285C57.2156 15.1163 56.4022 14.9323 55.7072 14.733C55.0121 14.5337 54.4357 14.2653 53.9776 13.928C53.5511 13.606 53.2194 13.238 52.9824 12.824C52.7613 12.41 52.6507 11.9117 52.6507 11.329C52.6507 10.731 52.8086 10.202 53.1246 9.74198C53.4563 9.28198 53.8985 8.88328 54.4514 8.54598C55.0201 8.20868 55.6677 7.95568 56.3943 7.78698C57.1209 7.61828 57.8949 7.53398 58.7163 7.53398C59.4902 7.53398 60.2563 7.60298 61.0145 7.74098C61.7727 7.87898 62.4993 8.08598 63.1943 8.36198C63.8894 8.63798 64.4975 8.98298 65.0187 9.39698L63.0759 11.628C62.7125 11.3673 62.2782 11.1297 61.7727 10.915C61.2831 10.685 60.7539 10.5087 60.1852 10.386C59.6324 10.248 59.0796 10.179 58.5267 10.179C58.2266 10.179 57.9501 10.1943 57.6974 10.225C57.4447 10.2557 57.2078 10.3093 56.9866 10.386C56.7813 10.4627 56.6155 10.5623 56.4891 10.685C56.3785 10.8077 56.3232 10.9533 56.3232 11.122C56.3232 11.2447 56.3627 11.3673 56.4417 11.49C56.5207 11.5973 56.6392 11.697 56.7971 11.789C57.034 11.927 57.3894 12.0573 57.8633 12.18C58.3529 12.2873 58.9295 12.4023 59.5929 12.525C60.6512 12.6937 61.5515 12.9083 62.294 13.169C63.0364 13.4297 63.6208 13.7287 64.0473 14.066C64.4264 14.342 64.6949 14.6563 64.8529 15.009C65.0108 15.3617 65.0898 15.7603 65.0898 16.205C65.0898 17.0023 64.8292 17.7077 64.3079 18.321C63.7867 18.919 63.0601 19.3867 62.1281 19.724C61.212 20.0613 60.1536 20.23 58.9532 20.23ZM70.3126 20V2.97998H74.0561V10.777L73.0847 11.099C73.2426 10.455 73.5823 9.87228 74.1035 9.35098C74.6405 8.81428 75.296 8.37728 76.0701 8.03998C76.8598 7.70268 77.7049 7.53398 78.6053 7.53398C79.7426 7.53398 80.6903 7.75628 81.4485 8.20098C82.2067 8.63028 82.7832 9.22828 83.1781 9.99498C83.573 10.7617 83.7704 11.6433 83.7704 12.64V20H79.9795V13.307C79.9795 12.7397 79.861 12.2567 79.6241 11.858C79.4029 11.4593 79.087 11.1603 78.6764 10.961C78.2656 10.7463 77.776 10.6313 77.2074 10.616C76.765 10.616 76.3465 10.6927 75.9516 10.846C75.5725 10.9993 75.2408 11.2063 74.9565 11.467C74.6879 11.7277 74.4826 12.019 74.3404 12.341C74.1983 12.663 74.1272 13.008 74.1272 13.376V20H72.2317C71.6788 20 71.2444 20 70.9286 20C70.6126 20 70.4073 20 70.3126 20ZM97.0719 20.23C95.5555 20.23 94.205 19.9617 93.0203 19.425C91.8356 18.873 90.9037 18.1217 90.2244 17.171C89.561 16.205 89.2293 15.1087 89.2293 13.882C89.2293 12.64 89.561 11.5437 90.2244 10.593C90.9037 9.64228 91.8356 8.89868 93.0203 8.36198C94.205 7.80998 95.5555 7.53398 97.0719 7.53398C98.6199 7.53398 99.9783 7.80998 101.147 8.36198C102.316 8.89868 103.232 9.64228 103.896 10.593C104.574 11.5437 104.914 12.64 104.914 13.882C104.914 15.1087 104.574 16.205 103.896 17.171C103.232 18.1217 102.316 18.873 101.147 19.425C99.9783 19.9617 98.6199 20.23 97.0719 20.23ZM97.0955 17.056C97.838 17.056 98.5093 16.9257 99.1095 16.665C99.7255 16.389 100.207 16.0133 100.555 15.538C100.918 15.0627 101.092 14.5107 101.076 13.882C101.092 13.2533 100.918 12.7013 100.555 12.226C100.207 11.7353 99.7255 11.3597 99.1095 11.099C98.5093 10.823 97.838 10.685 97.0955 10.685C96.3374 10.685 95.6502 10.823 95.0342 11.099C94.4182 11.3597 93.9365 11.7353 93.5889 12.226C93.2414 12.7013 93.0677 13.2533 93.0677 13.882C93.0677 14.5107 93.2414 15.0627 93.5889 15.538C93.9365 16.0133 94.4182 16.389 95.0342 16.665C95.6502 16.9257 96.3374 17.056 97.0955 17.056ZM110.48 25.06V7.76398H114.082L114.248 10.524L113.513 10.317C113.623 9.84168 113.94 9.39698 114.461 8.98298C114.982 8.56898 115.63 8.23168 116.404 7.97098C117.177 7.69498 118.023 7.55698 118.939 7.55698C120.234 7.55698 121.364 7.82528 122.327 8.36198C123.307 8.89868 124.072 9.64228 124.625 10.593C125.178 11.5283 125.455 12.6247 125.455 13.882C125.455 15.124 125.17 16.2203 124.602 17.171C124.048 18.1217 123.283 18.8653 122.303 19.402C121.324 19.9387 120.195 20.207 118.915 20.207C117.983 20.207 117.123 20.069 116.333 19.793C115.559 19.517 114.911 19.1567 114.39 18.712C113.884 18.252 113.569 17.7843 113.442 17.309L114.319 16.987V25.06H110.48ZM117.967 17.102C118.726 17.102 119.389 16.9717 119.958 16.711C120.526 16.435 120.961 16.0593 121.261 15.584C121.577 15.0933 121.735 14.526 121.735 13.882C121.735 13.238 121.577 12.6783 121.261 12.203C120.961 11.7123 120.526 11.3367 119.958 11.076C119.404 10.8 118.741 10.662 117.967 10.662C117.209 10.662 116.538 10.8 115.953 11.076C115.385 11.352 114.95 11.7353 114.65 12.226C114.351 12.7013 114.2 13.2533 114.2 13.882C114.2 14.526 114.351 15.0933 114.65 15.584C114.95 16.0593 115.385 16.435 115.953 16.711C116.538 16.9717 117.209 17.102 117.967 17.102ZM131.05 20V2.97998H134.841V20H131.05ZM147.926 20.23C146.332 20.23 144.934 19.9617 143.733 19.425C142.548 18.873 141.624 18.1217 140.96 17.171C140.313 16.2203 139.989 15.147 139.989 13.951C139.989 12.985 140.179 12.111 140.558 11.329C140.953 10.5317 141.49 9.85698 142.169 9.30498C142.849 8.73768 143.638 8.30068 144.538 7.99398C145.455 7.68728 146.426 7.53398 147.452 7.53398C148.464 7.53398 149.395 7.68728 150.248 7.99398C151.118 8.30068 151.868 8.72998 152.499 9.28198C153.147 9.81868 153.636 10.4627 153.968 11.214C154.316 11.9653 154.474 12.7933 154.442 13.698L154.418 14.779H142.548L142.003 12.571H151.338L150.935 13.054V12.594C150.888 12.18 150.707 11.8197 150.39 11.513C150.075 11.2063 149.664 10.9687 149.158 10.8C148.669 10.616 148.116 10.524 147.5 10.524C146.742 10.524 146.063 10.639 145.462 10.869C144.863 11.099 144.389 11.4517 144.041 11.927C143.709 12.387 143.543 12.9697 143.543 13.675C143.543 14.3343 143.741 14.9247 144.135 15.446C144.531 15.952 145.1 16.3583 145.841 16.665C146.584 16.9563 147.452 17.102 148.448 17.102C149.364 17.102 150.123 17.0023 150.722 16.803C151.323 16.5883 151.828 16.343 152.238 16.067L153.921 18.459C153.384 18.8423 152.792 19.1643 152.144 19.425C151.497 19.6857 150.81 19.885 150.082 20.023C149.372 20.161 148.654 20.23 147.926 20.23ZM160.088 20V7.78698H163.69L163.832 10.777L162.884 11.03C163.09 10.4167 163.446 9.84928 163.95 9.32798C164.472 8.79128 165.104 8.36198 165.846 8.03998C166.604 7.70268 167.433 7.53398 168.334 7.53398C169.471 7.53398 170.419 7.74868 171.177 8.17798C171.951 8.60728 172.536 9.21298 172.93 9.99498C173.341 10.7617 173.546 11.651 173.546 12.663V20H169.755V13.261C169.755 12.7243 169.637 12.2567 169.4 11.858C169.179 11.4593 168.855 11.1527 168.428 10.938C168.018 10.7233 167.536 10.6237 166.983 10.639C166.509 10.639 166.083 10.7233 165.704 10.892C165.324 11.0453 164.993 11.2523 164.708 11.513C164.441 11.7737 164.235 12.0573 164.092 12.364C163.967 12.6707 163.903 12.9773 163.903 13.284V20H162.007C161.455 20 161.021 20 160.704 20C160.389 20 160.183 20 160.088 20ZM185.426 20.23C183.957 20.23 182.646 20.0383 181.493 19.655C180.34 19.2717 179.408 18.712 178.697 17.976L181.019 15.998C181.557 16.4887 182.22 16.872 183.009 17.148C183.815 17.4087 184.676 17.539 185.592 17.539C185.876 17.539 186.153 17.5237 186.421 17.493C186.69 17.4623 186.927 17.401 187.132 17.309C187.353 17.217 187.519 17.1097 187.629 16.987C187.756 16.849 187.819 16.6957 187.819 16.527C187.819 16.2203 187.606 15.9827 187.179 15.814C186.911 15.722 186.548 15.6377 186.089 15.561C185.632 15.469 185.142 15.377 184.62 15.285C183.689 15.1163 182.875 14.9323 182.18 14.733C181.486 14.5337 180.909 14.2653 180.45 13.928C180.024 13.606 179.692 13.238 179.455 12.824C179.235 12.41 179.123 11.9117 179.123 11.329C179.123 10.731 179.282 10.202 179.597 9.74198C179.929 9.28198 180.372 8.88328 180.924 8.54598C181.493 8.20868 182.141 7.95568 182.867 7.78698C183.594 7.61828 184.368 7.53398 185.189 7.53398C185.964 7.53398 186.729 7.60298 187.487 7.74098C188.245 7.87898 188.973 8.08598 189.667 8.36198C190.362 8.63798 190.97 8.98298 191.491 9.39698L189.548 11.628C189.186 11.3673 188.751 11.1297 188.245 10.915C187.756 10.685 187.227 10.5087 186.658 10.386C186.106 10.248 185.553 10.179 184.999 10.179C184.7 10.179 184.424 10.1943 184.17 10.225C183.918 10.2557 183.681 10.3093 183.459 10.386C183.254 10.4627 183.088 10.5623 182.962 10.685C182.851 10.8077 182.796 10.9533 182.796 11.122C182.796 11.2447 182.836 11.3673 182.914 11.49C182.994 11.5973 183.112 11.697 183.27 11.789C183.507 11.927 183.862 12.0573 184.336 12.18C184.826 12.2873 185.402 12.4023 186.066 12.525C187.125 12.6937 188.025 12.9083 188.767 13.169C189.509 13.4297 190.093 13.7287 190.52 14.066C190.899 14.342 191.168 14.6563 191.326 15.009C191.484 15.3617 191.562 15.7603 191.562 16.205C191.562 17.0023 191.302 17.7077 190.781 18.321C190.259 18.919 189.533 19.3867 188.601 19.724C187.685 20.0613 186.627 20.23 185.426 20.23Z" fill="#FC8F8C"/>
<path d="M58.9532 20.23C57.4842 20.23 56.1731 20.0383 55.0201 19.655C53.867 19.2717 52.935 18.712 52.2242 17.976L54.5462 15.998C55.0832 16.4887 55.7466 16.872 56.5365 17.148C57.342 17.4087 58.2029 17.539 59.119 17.539C59.4034 17.539 59.6798 17.5237 59.9483 17.493C60.2169 17.4623 60.4538 17.401 60.6591 17.309C60.8803 17.217 61.0461 17.1097 61.1567 16.987C61.2831 16.849 61.3462 16.6957 61.3462 16.527C61.3462 16.2203 61.133 15.9827 60.7065 15.814C60.4379 15.722 60.0747 15.6377 59.6166 15.561C59.1585 15.469 58.6689 15.377 58.1476 15.285C57.2156 15.1163 56.4022 14.9323 55.7072 14.733C55.0121 14.5337 54.4357 14.2653 53.9776 13.928C53.5511 13.606 53.2194 13.238 52.9824 12.824C52.7613 12.41 52.6507 11.9117 52.6507 11.329C52.6507 10.731 52.8086 10.202 53.1246 9.74198C53.4563 9.28198 53.8985 8.88328 54.4514 8.54598C55.0201 8.20868 55.6677 7.95568 56.3943 7.78698C57.1209 7.61828 57.8949 7.53398 58.7163 7.53398C59.4902 7.53398 60.2563 7.60298 61.0145 7.74098C61.7727 7.87898 62.4993 8.08598 63.1943 8.36198C63.8894 8.63798 64.4975 8.98298 65.0187 9.39698L63.0759 11.628C62.7125 11.3673 62.2782 11.1297 61.7727 10.915C61.2831 10.685 60.7539 10.5087 60.1852 10.386C59.6324 10.248 59.0796 10.179 58.5267 10.179C58.2266 10.179 57.9501 10.1943 57.6974 10.225C57.4447 10.2557 57.2078 10.3093 56.9866 10.386C56.7813 10.4627 56.6155 10.5623 56.4891 10.685C56.3785 10.8077 56.3232 10.9533 56.3232 11.122C56.3232 11.2447 56.3627 11.3673 56.4417 11.49C56.5207 11.5973 56.6392 11.697 56.7971 11.789C57.034 11.927 57.3894 12.0573 57.8633 12.18C58.3529 12.2873 58.9295 12.4023 59.5929 12.525C60.6512 12.6937 61.5515 12.9083 62.294 13.169C63.0364 13.4297 63.6208 13.7287 64.0473 14.066C64.4264 14.342 64.6949 14.6563 64.8529 15.009C65.0108 15.3617 65.0898 15.7603 65.0898 16.205C65.0898 17.0023 64.8292 17.7077 64.3079 18.321C63.7867 18.919 63.0601 19.3867 62.1281 19.724C61.212 20.0613 60.1536 20.23 58.9532 20.23ZM70.3126 20V2.97998H74.0561V10.777L73.0847 11.099C73.2426 10.455 73.5823 9.87228 74.1035 9.35098C74.6405 8.81428 75.296 8.37728 76.0701 8.03998C76.8598 7.70268 77.7049 7.53398 78.6053 7.53398C79.7426 7.53398 80.6903 7.75628 81.4485 8.20098C82.2067 8.63028 82.7832 9.22828 83.1781 9.99498C83.573 10.7617 83.7704 11.6433 83.7704 12.64V20H79.9795V13.307C79.9795 12.7397 79.861 12.2567 79.6241 11.858C79.4029 11.4593 79.087 11.1603 78.6764 10.961C78.2656 10.7463 77.776 10.6313 77.2074 10.616C76.765 10.616 76.3465 10.6927 75.9516 10.846C75.5725 10.9993 75.2408 11.2063 74.9565 11.467C74.6879 11.7277 74.4826 12.019 74.3404 12.341C74.1983 12.663 74.1272 13.008 74.1272 13.376V20H72.2317C71.6788 20 71.2444 20 70.9286 20C70.6126 20 70.4073 20 70.3126 20ZM97.0719 20.23C95.5555 20.23 94.205 19.9617 93.0203 19.425C91.8356 18.873 90.9037 18.1217 90.2244 17.171C89.561 16.205 89.2293 15.1087 89.2293 13.882C89.2293 12.64 89.561 11.5437 90.2244 10.593C90.9037 9.64228 91.8356 8.89868 93.0203 8.36198C94.205 7.80998 95.5555 7.53398 97.0719 7.53398C98.6199 7.53398 99.9783 7.80998 101.147 8.36198C102.316 8.89868 103.232 9.64228 103.896 10.593C104.574 11.5437 104.914 12.64 104.914 13.882C104.914 15.1087 104.574 16.205 103.896 17.171C103.232 18.1217 102.316 18.873 101.147 19.425C99.9783 19.9617 98.6199 20.23 97.0719 20.23ZM97.0955 17.056C97.838 17.056 98.5093 16.9257 99.1095 16.665C99.7255 16.389 100.207 16.0133 100.555 15.538C100.918 15.0627 101.092 14.5107 101.076 13.882C101.092 13.2533 100.918 12.7013 100.555 12.226C100.207 11.7353 99.7255 11.3597 99.1095 11.099C98.5093 10.823 97.838 10.685 97.0955 10.685C96.3374 10.685 95.6502 10.823 95.0342 11.099C94.4182 11.3597 93.9365 11.7353 93.5889 12.226C93.2414 12.7013 93.0677 13.2533 93.0677 13.882C93.0677 14.5107 93.2414 15.0627 93.5889 15.538C93.9365 16.0133 94.4182 16.389 95.0342 16.665C95.6502 16.9257 96.3374 17.056 97.0955 17.056ZM110.48 25.06V7.76398H114.082L114.248 10.524L113.513 10.317C113.623 9.84168 113.94 9.39698 114.461 8.98298C114.982 8.56898 115.63 8.23168 116.404 7.97098C117.177 7.69498 118.023 7.55698 118.939 7.55698C120.234 7.55698 121.364 7.82528 122.327 8.36198C123.307 8.89868 124.072 9.64228 124.625 10.593C125.178 11.5283 125.455 12.6247 125.455 13.882C125.455 15.124 125.17 16.2203 124.602 17.171C124.048 18.1217 123.283 18.8653 122.303 19.402C121.324 19.9387 120.195 20.207 118.915 20.207C117.983 20.207 117.123 20.069 116.333 19.793C115.559 19.517 114.911 19.1567 114.39 18.712C113.884 18.252 113.569 17.7843 113.442 17.309L114.319 16.987V25.06H110.48ZM117.967 17.102C118.726 17.102 119.389 16.9717 119.958 16.711C120.526 16.435 120.961 16.0593 121.261 15.584C121.577 15.0933 121.735 14.526 121.735 13.882C121.735 13.238 121.577 12.6783 121.261 12.203C120.961 11.7123 120.526 11.3367 119.958 11.076C119.404 10.8 118.741 10.662 117.967 10.662C117.209 10.662 116.538 10.8 115.953 11.076C115.385 11.352 114.95 11.7353 114.65 12.226C114.351 12.7013 114.2 13.2533 114.2 13.882C114.2 14.526 114.351 15.0933 114.65 15.584C114.95 16.0593 115.385 16.435 115.953 16.711C116.538 16.9717 117.209 17.102 117.967 17.102ZM131.05 20V2.97998H134.841V20H131.05ZM147.926 20.23C146.332 20.23 144.934 19.9617 143.733 19.425C142.548 18.873 141.624 18.1217 140.96 17.171C140.313 16.2203 139.989 15.147 139.989 13.951C139.989 12.985 140.179 12.111 140.558 11.329C140.953 10.5317 141.49 9.85698 142.169 9.30498C142.849 8.73768 143.638 8.30068 144.538 7.99398C145.455 7.68728 146.426 7.53398 147.452 7.53398C148.464 7.53398 149.395 7.68728 150.248 7.99398C151.118 8.30068 151.868 8.72998 152.499 9.28198C153.147 9.81868 153.636 10.4627 153.968 11.214C154.316 11.9653 154.474 12.7933 154.442 13.698L154.418 14.779H142.548L142.003 12.571H151.338L150.935 13.054V12.594C150.888 12.18 150.707 11.8197 150.39 11.513C150.075 11.2063 149.664 10.9687 149.158 10.8C148.669 10.616 148.116 10.524 147.5 10.524C146.742 10.524 146.063 10.639 145.462 10.869C144.863 11.099 144.389 11.4517 144.041 11.927C143.709 12.387 143.543 12.9697 143.543 13.675C143.543 14.3343 143.741 14.9247 144.135 15.446C144.531 15.952 145.1 16.3583 145.841 16.665C146.584 16.9563 147.452 17.102 148.448 17.102C149.364 17.102 150.123 17.0023 150.722 16.803C151.323 16.5883 151.828 16.343 152.238 16.067L153.921 18.459C153.384 18.8423 152.792 19.1643 152.144 19.425C151.497 19.6857 150.81 19.885 150.082 20.023C149.372 20.161 148.654 20.23 147.926 20.23ZM160.088 20V7.78698H163.69L163.832 10.777L162.884 11.03C163.09 10.4167 163.446 9.84928 163.95 9.32798C164.472 8.79128 165.104 8.36198 165.846 8.03998C166.604 7.70268 167.433 7.53398 168.334 7.53398C169.471 7.53398 170.419 7.74868 171.177 8.17798C171.951 8.60728 172.536 9.21298 172.93 9.99498C173.341 10.7617 173.546 11.651 173.546 12.663V20H169.755V13.261C169.755 12.7243 169.637 12.2567 169.4 11.858C169.179 11.4593 168.855 11.1527 168.428 10.938C168.018 10.7233 167.536 10.6237 166.983 10.639C166.509 10.639 166.083 10.7233 165.704 10.892C165.324 11.0453 164.993 11.2523 164.708 11.513C164.441 11.7737 164.235 12.0573 164.092 12.364C163.967 12.6707 163.903 12.9773 163.903 13.284V20H162.007C161.455 20 161.021 20 160.704 20C160.389 20 160.183 20 160.088 20ZM185.426 20.23C183.957 20.23 182.646 20.0383 181.493 19.655C180.34 19.2717 179.408 18.712 178.697 17.976L181.019 15.998C181.557 16.4887 182.22 16.872 183.009 17.148C183.815 17.4087 184.676 17.539 185.592 17.539C185.876 17.539 186.153 17.5237 186.421 17.493C186.69 17.4623 186.927 17.401 187.132 17.309C187.353 17.217 187.519 17.1097 187.629 16.987C187.756 16.849 187.819 16.6957 187.819 16.527C187.819 16.2203 187.606 15.9827 187.179 15.814C186.911 15.722 186.548 15.6377 186.089 15.561C185.632 15.469 185.142 15.377 184.62 15.285C183.689 15.1163 182.875 14.9323 182.18 14.733C181.486 14.5337 180.909 14.2653 180.45 13.928C180.024 13.606 179.692 13.238 179.455 12.824C179.235 12.41 179.123 11.9117 179.123 11.329C179.123 10.731 179.282 10.202 179.597 9.74198C179.929 9.28198 180.372 8.88328 180.924 8.54598C181.493 8.20868 182.141 7.95568 182.867 7.78698C183.594 7.61828 184.368 7.53398 185.189 7.53398C185.964 7.53398 186.729 7.60298 187.487 7.74098C188.245 7.87898 188.973 8.08598 189.667 8.36198C190.362 8.63798 190.97 8.98298 191.491 9.39698L189.548 11.628C189.186 11.3673 188.751 11.1297 188.245 10.915C187.756 10.685 187.227 10.5087 186.658 10.386C186.106 10.248 185.553 10.179 184.999 10.179C184.7 10.179 184.424 10.1943 184.17 10.225C183.918 10.2557 183.681 10.3093 183.459 10.386C183.254 10.4627 183.088 10.5623 182.962 10.685C182.851 10.8077 182.796 10.9533 182.796 11.122C182.796 11.2447 182.836 11.3673 182.914 11.49C182.994 11.5973 183.112 11.697 183.27 11.789C183.507 11.927 183.862 12.0573 184.336 12.18C184.826 12.2873 185.402 12.4023 186.066 12.525C187.125 12.6937 188.025 12.9083 188.767 13.169C189.509 13.4297 190.093 13.7287 190.52 14.066C190.899 14.342 191.168 14.6563 191.326 15.009C191.484 15.3617 191.562 15.7603 191.562 16.205C191.562 17.0023 191.302 17.7077 190.781 18.321C190.259 18.919 189.533 19.3867 188.601 19.724C187.685 20.0613 186.627 20.23 185.426 20.23Z" stroke="black" stroke-width="2" mask="url(#path-1-outside-1_4791_65)"/>
<mask id="path-2-outside-2_4791_65" maskUnits="userSpaceOnUse" x="52.5679" y="2" width="143" height="25" fill="black">
<rect fill="white" x="52.5679" y="2" width="143" height="25"/>
<path d="M61.2968 20.25C59.8278 20.25 58.5167 20.0583 57.3637 19.675C56.2107 19.2917 55.2787 18.732 54.5679 17.996L56.8898 16.018C57.4269 16.5087 58.0903 16.892 58.8801 17.168C59.6857 17.4287 60.5466 17.559 61.4627 17.559C61.747 17.559 62.0234 17.5437 62.2919 17.513C62.5605 17.4823 62.7974 17.421 63.0027 17.329C63.2239 17.237 63.3898 17.1297 63.5003 17.007C63.6267 16.869 63.6899 16.7157 63.6899 16.547C63.6899 16.2403 63.4766 16.0027 63.0501 15.834C62.7816 15.742 62.4183 15.6577 61.9602 15.581C61.5021 15.489 61.0125 15.397 60.4912 15.305C59.5593 15.1363 58.7459 14.9523 58.0508 14.753C57.3558 14.5537 56.7793 14.2853 56.3212 13.948C55.8947 13.626 55.563 13.258 55.3261 12.844C55.1049 12.43 54.9944 11.9317 54.9944 11.349C54.9944 10.751 55.1523 10.222 55.4682 9.762C55.7999 9.302 56.2422 8.9033 56.7951 8.566C57.3637 8.2287 58.0114 7.9757 58.7379 7.807C59.4645 7.6383 60.2385 7.554 61.0599 7.554C61.8338 7.554 62.6 7.623 63.3582 7.761C64.1163 7.899 64.8429 8.106 65.5379 8.382C66.233 8.658 66.8411 9.003 67.3623 9.417L65.4195 11.648C65.0561 11.3873 64.6218 11.1497 64.1163 10.935C63.6267 10.705 63.0975 10.5287 62.5289 10.406C61.976 10.268 61.4232 10.199 60.8703 10.199C60.5703 10.199 60.2938 10.2143 60.0411 10.245C59.7884 10.2757 59.5514 10.3293 59.3303 10.406C59.125 10.4827 58.9591 10.5823 58.8327 10.705C58.7222 10.8277 58.6668 10.9733 58.6668 11.142C58.6668 11.2647 58.7063 11.3873 58.7853 11.51C58.8643 11.6173 58.9828 11.717 59.1407 11.809C59.3776 11.947 59.733 12.0773 60.2069 12.2C60.6965 12.3073 61.2731 12.4223 61.9365 12.545C62.9948 12.7137 63.8952 12.9283 64.6376 13.189C65.38 13.4497 65.9644 13.7487 66.3909 14.086C66.77 14.362 67.0386 14.6763 67.1965 15.029C67.3544 15.3817 67.4334 15.7803 67.4334 16.225C67.4334 17.0223 67.1728 17.7277 66.6515 18.341C66.1303 18.939 65.4037 19.4067 64.4717 19.744C63.5556 20.0813 62.4973 20.25 61.2968 20.25ZM72.6562 20.02V3H76.3998V10.797L75.4283 11.119C75.5862 10.475 75.9259 9.8923 76.4471 9.371C76.9842 8.8343 77.6396 8.3973 78.4137 8.06C79.2034 7.7227 80.0485 7.554 80.9489 7.554C82.0862 7.554 83.0339 7.7763 83.7921 8.221C84.5503 8.6503 85.1268 9.2483 85.5217 10.015C85.9166 10.7817 86.1141 11.6633 86.1141 12.66V20.02H82.3231V13.327C82.3231 12.7597 82.2047 12.2767 81.9677 11.878C81.7465 11.4793 81.4306 11.1803 81.02 10.981C80.6093 10.7663 80.1196 10.6513 79.551 10.636C79.1086 10.636 78.6901 10.7127 78.2952 10.866C77.9161 11.0193 77.5844 11.2263 77.3001 11.487C77.0315 11.7477 76.8262 12.039 76.6841 12.361C76.5419 12.683 76.4708 13.028 76.4708 13.396V20.02H74.5754C74.0225 20.02 73.5881 20.02 73.2722 20.02C72.9563 20.02 72.751 20.02 72.6562 20.02ZM99.4155 20.25C97.8991 20.25 96.5486 19.9817 95.3639 19.445C94.1792 18.893 93.2474 18.1417 92.5681 17.191C91.9047 16.225 91.573 15.1287 91.573 13.902C91.573 12.66 91.9047 11.5637 92.5681 10.613C93.2474 9.6623 94.1792 8.9187 95.3639 8.382C96.5486 7.83 97.8991 7.554 99.4155 7.554C100.964 7.554 102.322 7.83 103.491 8.382C104.66 8.9187 105.576 9.6623 106.239 10.613C106.918 11.5637 107.258 12.66 107.258 13.902C107.258 15.1287 106.918 16.225 106.239 17.191C105.576 18.1417 104.66 18.893 103.491 19.445C102.322 19.9817 100.964 20.25 99.4155 20.25ZM99.4392 17.076C100.182 17.076 100.853 16.9457 101.453 16.685C102.069 16.409 102.551 16.0333 102.898 15.558C103.262 15.0827 103.435 14.5307 103.42 13.902C103.435 13.2733 103.262 12.7213 102.898 12.246C102.551 11.7553 102.069 11.3797 101.453 11.119C100.853 10.843 100.182 10.705 99.4392 10.705C98.681 10.705 97.9939 10.843 97.3778 11.119C96.7618 11.3797 96.2797 11.7553 95.9325 12.246C95.5851 12.7213 95.4113 13.2733 95.4113 13.902C95.4113 14.5307 95.5851 15.0827 95.9325 15.558C96.2797 16.0333 96.7618 16.409 97.3778 16.685C97.9939 16.9457 98.681 17.076 99.4392 17.076ZM112.824 25.08V7.784H116.425L116.591 10.544L115.857 10.337C115.967 9.8617 116.283 9.417 116.804 9.003C117.326 8.589 117.974 8.2517 118.747 7.991C119.521 7.715 120.367 7.577 121.282 7.577C122.577 7.577 123.707 7.8453 124.671 8.382C125.65 8.9187 126.416 9.6623 126.969 10.613C127.522 11.5483 127.798 12.6447 127.798 13.902C127.798 15.144 127.514 16.2403 126.945 17.191C126.392 18.1417 125.627 18.8853 124.647 19.422C123.667 19.9587 122.538 20.227 121.259 20.227C120.327 20.227 119.466 20.089 118.676 19.813C117.903 19.537 117.255 19.1767 116.733 18.732C116.228 18.272 115.912 17.8043 115.786 17.329L116.662 17.007V25.08H112.824ZM120.311 17.122C121.069 17.122 121.733 16.9917 122.301 16.731C122.87 16.455 123.305 16.0793 123.604 15.604C123.921 15.1133 124.078 14.546 124.078 13.902C124.078 13.258 123.921 12.6983 123.604 12.223C123.305 11.7323 122.87 11.3567 122.301 11.096C121.748 10.82 121.085 10.682 120.311 10.682C119.553 10.682 118.881 10.82 118.297 11.096C117.728 11.372 117.294 11.7553 116.994 12.246C116.694 12.7213 116.544 13.2733 116.544 13.902C116.544 14.546 116.694 15.1133 116.994 15.604C117.294 16.0793 117.728 16.455 118.297 16.731C118.881 16.9917 119.553 17.122 120.311 17.122ZM133.394 20.02V3H137.185V20.02H133.394ZM150.27 20.25C148.675 20.25 147.277 19.9817 146.076 19.445C144.891 18.893 143.967 18.1417 143.304 17.191C142.657 16.2403 142.333 15.167 142.333 13.971C142.333 13.005 142.522 12.131 142.901 11.349C143.297 10.5517 143.834 9.877 144.512 9.325C145.192 8.7577 145.981 8.3207 146.882 8.014C147.799 7.7073 148.77 7.554 149.796 7.554C150.808 7.554 151.739 7.7073 152.592 8.014C153.461 8.3207 154.211 8.75 154.843 9.302C155.491 9.8387 155.98 10.4827 156.312 11.234C156.66 11.9853 156.818 12.8133 156.786 13.718L156.762 14.799H144.891L144.347 12.591H153.682L153.279 13.074V12.614C153.232 12.2 153.05 11.8397 152.734 11.533C152.419 11.2263 152.008 10.9887 151.502 10.82C151.013 10.636 150.459 10.544 149.843 10.544C149.085 10.544 148.406 10.659 147.806 10.889C147.206 11.119 146.732 11.4717 146.384 11.947C146.052 12.407 145.887 12.9897 145.887 13.695C145.887 14.3543 146.084 14.9447 146.479 15.466C146.875 15.972 147.443 16.3783 148.185 16.685C148.928 16.9763 149.796 17.122 150.791 17.122C151.708 17.122 152.466 17.0223 153.066 16.823C153.666 16.6083 154.172 16.363 154.582 16.087L156.264 18.479C155.728 18.8623 155.135 19.1843 154.487 19.445C153.84 19.7057 153.153 19.905 152.426 20.043C151.715 20.181 150.997 20.25 150.27 20.25ZM162.432 20.02V7.807H166.033L166.175 10.797L165.228 11.05C165.434 10.4367 165.789 9.8693 166.294 9.348C166.815 8.8113 167.448 8.382 168.189 8.06C168.948 7.7227 169.777 7.554 170.677 7.554C171.814 7.554 172.762 7.7687 173.52 8.198C174.295 8.6273 174.879 9.233 175.274 10.015C175.685 10.7817 175.89 11.671 175.89 12.683V20.02H172.099V13.281C172.099 12.7443 171.98 12.2767 171.743 11.878C171.523 11.4793 171.198 11.1727 170.772 10.958C170.362 10.7433 169.88 10.6437 169.327 10.659C168.853 10.659 168.426 10.7433 168.047 10.912C167.668 11.0653 167.336 11.2723 167.052 11.533C166.784 11.7937 166.578 12.0773 166.436 12.384C166.31 12.6907 166.247 12.9973 166.247 13.304V20.02H164.351C163.799 20.02 163.364 20.02 163.048 20.02C162.733 20.02 162.527 20.02 162.432 20.02ZM187.769 20.25C186.3 20.25 184.99 20.0583 183.836 19.675C182.684 19.2917 181.751 18.732 181.041 17.996L183.362 16.018C183.9 16.5087 184.564 16.892 185.353 17.168C186.158 17.4287 187.019 17.559 187.935 17.559C188.22 17.559 188.497 17.5437 188.765 17.513C189.033 17.4823 189.27 17.421 189.475 17.329C189.697 17.237 189.863 17.1297 189.973 17.007C190.1 16.869 190.163 16.7157 190.163 16.547C190.163 16.2403 189.949 16.0027 189.523 15.834C189.255 15.742 188.891 15.6577 188.433 15.581C187.975 15.489 187.485 15.397 186.964 15.305C186.033 15.1363 185.219 14.9523 184.523 14.753C183.829 14.5537 183.252 14.2853 182.794 13.948C182.367 13.626 182.036 13.258 181.799 12.844C181.578 12.43 181.467 11.9317 181.467 11.349C181.467 10.751 181.626 10.222 181.941 9.762C182.273 9.302 182.716 8.9033 183.268 8.566C183.836 8.2287 184.484 7.9757 185.211 7.807C185.938 7.6383 186.711 7.554 187.533 7.554C188.307 7.554 189.073 7.623 189.831 7.761C190.589 7.899 191.316 8.106 192.011 8.382C192.706 8.658 193.314 9.003 193.835 9.417L191.892 11.648C191.529 11.3873 191.095 11.1497 190.589 10.935C190.1 10.705 189.57 10.5287 189.002 10.406C188.449 10.268 187.896 10.199 187.343 10.199C187.043 10.199 186.767 10.2143 186.514 10.245C186.261 10.2757 186.024 10.3293 185.803 10.406C185.598 10.4827 185.432 10.5823 185.305 10.705C185.195 10.8277 185.139 10.9733 185.139 11.142C185.139 11.2647 185.18 11.3873 185.258 11.51C185.337 11.6173 185.456 11.717 185.613 11.809C185.85 11.947 186.206 12.0773 186.68 12.2C187.17 12.3073 187.746 12.4223 188.409 12.545C189.468 12.7137 190.369 12.9283 191.11 13.189C191.853 13.4497 192.437 13.7487 192.864 14.086C193.243 14.362 193.512 14.6763 193.669 15.029C193.828 15.3817 193.906 15.7803 193.906 16.225C193.906 17.0223 193.645 17.7277 193.124 18.341C192.603 18.939 191.877 19.4067 190.944 19.744C190.029 20.0813 188.971 20.25 187.769 20.25Z"/>
</mask>
<path d="M61.2968 20.25C59.8278 20.25 58.5167 20.0583 57.3637 19.675C56.2107 19.2917 55.2787 18.732 54.5679 17.996L56.8898 16.018C57.4269 16.5087 58.0903 16.892 58.8801 17.168C59.6857 17.4287 60.5466 17.559 61.4627 17.559C61.747 17.559 62.0234 17.5437 62.2919 17.513C62.5605 17.4823 62.7974 17.421 63.0027 17.329C63.2239 17.237 63.3898 17.1297 63.5003 17.007C63.6267 16.869 63.6899 16.7157 63.6899 16.547C63.6899 16.2403 63.4766 16.0027 63.0501 15.834C62.7816 15.742 62.4183 15.6577 61.9602 15.581C61.5021 15.489 61.0125 15.397 60.4912 15.305C59.5593 15.1363 58.7459 14.9523 58.0508 14.753C57.3558 14.5537 56.7793 14.2853 56.3212 13.948C55.8947 13.626 55.563 13.258 55.3261 12.844C55.1049 12.43 54.9944 11.9317 54.9944 11.349C54.9944 10.751 55.1523 10.222 55.4682 9.762C55.7999 9.302 56.2422 8.9033 56.7951 8.566C57.3637 8.2287 58.0114 7.9757 58.7379 7.807C59.4645 7.6383 60.2385 7.554 61.0599 7.554C61.8338 7.554 62.6 7.623 63.3582 7.761C64.1163 7.899 64.8429 8.106 65.5379 8.382C66.233 8.658 66.8411 9.003 67.3623 9.417L65.4195 11.648C65.0561 11.3873 64.6218 11.1497 64.1163 10.935C63.6267 10.705 63.0975 10.5287 62.5289 10.406C61.976 10.268 61.4232 10.199 60.8703 10.199C60.5703 10.199 60.2938 10.2143 60.0411 10.245C59.7884 10.2757 59.5514 10.3293 59.3303 10.406C59.125 10.4827 58.9591 10.5823 58.8327 10.705C58.7222 10.8277 58.6668 10.9733 58.6668 11.142C58.6668 11.2647 58.7063 11.3873 58.7853 11.51C58.8643 11.6173 58.9828 11.717 59.1407 11.809C59.3776 11.947 59.733 12.0773 60.2069 12.2C60.6965 12.3073 61.2731 12.4223 61.9365 12.545C62.9948 12.7137 63.8952 12.9283 64.6376 13.189C65.38 13.4497 65.9644 13.7487 66.3909 14.086C66.77 14.362 67.0386 14.6763 67.1965 15.029C67.3544 15.3817 67.4334 15.7803 67.4334 16.225C67.4334 17.0223 67.1728 17.7277 66.6515 18.341C66.1303 18.939 65.4037 19.4067 64.4717 19.744C63.5556 20.0813 62.4973 20.25 61.2968 20.25ZM72.6562 20.02V3H76.3998V10.797L75.4283 11.119C75.5862 10.475 75.9259 9.8923 76.4471 9.371C76.9842 8.8343 77.6396 8.3973 78.4137 8.06C79.2034 7.7227 80.0485 7.554 80.9489 7.554C82.0862 7.554 83.0339 7.7763 83.7921 8.221C84.5503 8.6503 85.1268 9.2483 85.5217 10.015C85.9166 10.7817 86.1141 11.6633 86.1141 12.66V20.02H82.3231V13.327C82.3231 12.7597 82.2047 12.2767 81.9677 11.878C81.7465 11.4793 81.4306 11.1803 81.02 10.981C80.6093 10.7663 80.1196 10.6513 79.551 10.636C79.1086 10.636 78.6901 10.7127 78.2952 10.866C77.9161 11.0193 77.5844 11.2263 77.3001 11.487C77.0315 11.7477 76.8262 12.039 76.6841 12.361C76.5419 12.683 76.4708 13.028 76.4708 13.396V20.02H74.5754C74.0225 20.02 73.5881 20.02 73.2722 20.02C72.9563 20.02 72.751 20.02 72.6562 20.02ZM99.4155 20.25C97.8991 20.25 96.5486 19.9817 95.3639 19.445C94.1792 18.893 93.2474 18.1417 92.5681 17.191C91.9047 16.225 91.573 15.1287 91.573 13.902C91.573 12.66 91.9047 11.5637 92.5681 10.613C93.2474 9.6623 94.1792 8.9187 95.3639 8.382C96.5486 7.83 97.8991 7.554 99.4155 7.554C100.964 7.554 102.322 7.83 103.491 8.382C104.66 8.9187 105.576 9.6623 106.239 10.613C106.918 11.5637 107.258 12.66 107.258 13.902C107.258 15.1287 106.918 16.225 106.239 17.191C105.576 18.1417 104.66 18.893 103.491 19.445C102.322 19.9817 100.964 20.25 99.4155 20.25ZM99.4392 17.076C100.182 17.076 100.853 16.9457 101.453 16.685C102.069 16.409 102.551 16.0333 102.898 15.558C103.262 15.0827 103.435 14.5307 103.42 13.902C103.435 13.2733 103.262 12.7213 102.898 12.246C102.551 11.7553 102.069 11.3797 101.453 11.119C100.853 10.843 100.182 10.705 99.4392 10.705C98.681 10.705 97.9939 10.843 97.3778 11.119C96.7618 11.3797 96.2797 11.7553 95.9325 12.246C95.5851 12.7213 95.4113 13.2733 95.4113 13.902C95.4113 14.5307 95.5851 15.0827 95.9325 15.558C96.2797 16.0333 96.7618 16.409 97.3778 16.685C97.9939 16.9457 98.681 17.076 99.4392 17.076ZM112.824 25.08V7.784H116.425L116.591 10.544L115.857 10.337C115.967 9.8617 116.283 9.417 116.804 9.003C117.326 8.589 117.974 8.2517 118.747 7.991C119.521 7.715 120.367 7.577 121.282 7.577C122.577 7.577 123.707 7.8453 124.671 8.382C125.65 8.9187 126.416 9.6623 126.969 10.613C127.522 11.5483 127.798 12.6447 127.798 13.902C127.798 15.144 127.514 16.2403 126.945 17.191C126.392 18.1417 125.627 18.8853 124.647 19.422C123.667 19.9587 122.538 20.227 121.259 20.227C120.327 20.227 119.466 20.089 118.676 19.813C117.903 19.537 117.255 19.1767 116.733 18.732C116.228 18.272 115.912 17.8043 115.786 17.329L116.662 17.007V25.08H112.824ZM120.311 17.122C121.069 17.122 121.733 16.9917 122.301 16.731C122.87 16.455 123.305 16.0793 123.604 15.604C123.921 15.1133 124.078 14.546 124.078 13.902C124.078 13.258 123.921 12.6983 123.604 12.223C123.305 11.7323 122.87 11.3567 122.301 11.096C121.748 10.82 121.085 10.682 120.311 10.682C119.553 10.682 118.881 10.82 118.297 11.096C117.728 11.372 117.294 11.7553 116.994 12.246C116.694 12.7213 116.544 13.2733 116.544 13.902C116.544 14.546 116.694 15.1133 116.994 15.604C117.294 16.0793 117.728 16.455 118.297 16.731C118.881 16.9917 119.553 17.122 120.311 17.122ZM133.394 20.02V3H137.185V20.02H133.394ZM150.27 20.25C148.675 20.25 147.277 19.9817 146.076 19.445C144.891 18.893 143.967 18.1417 143.304 17.191C142.657 16.2403 142.333 15.167 142.333 13.971C142.333 13.005 142.522 12.131 142.901 11.349C143.297 10.5517 143.834 9.877 144.512 9.325C145.192 8.7577 145.981 8.3207 146.882 8.014C147.799 7.7073 148.77 7.554 149.796 7.554C150.808 7.554 151.739 7.7073 152.592 8.014C153.461 8.3207 154.211 8.75 154.843 9.302C155.491 9.8387 155.98 10.4827 156.312 11.234C156.66 11.9853 156.818 12.8133 156.786 13.718L156.762 14.799H144.891L144.347 12.591H153.682L153.279 13.074V12.614C153.232 12.2 153.05 11.8397 152.734 11.533C152.419 11.2263 152.008 10.9887 151.502 10.82C151.013 10.636 150.459 10.544 149.843 10.544C149.085 10.544 148.406 10.659 147.806 10.889C147.206 11.119 146.732 11.4717 146.384 11.947C146.052 12.407 145.887 12.9897 145.887 13.695C145.887 14.3543 146.084 14.9447 146.479 15.466C146.875 15.972 147.443 16.3783 148.185 16.685C148.928 16.9763 149.796 17.122 150.791 17.122C151.708 17.122 152.466 17.0223 153.066 16.823C153.666 16.6083 154.172 16.363 154.582 16.087L156.264 18.479C155.728 18.8623 155.135 19.1843 154.487 19.445C153.84 19.7057 153.153 19.905 152.426 20.043C151.715 20.181 150.997 20.25 150.27 20.25ZM162.432 20.02V7.807H166.033L166.175 10.797L165.228 11.05C165.434 10.4367 165.789 9.8693 166.294 9.348C166.815 8.8113 167.448 8.382 168.189 8.06C168.948 7.7227 169.777 7.554 170.677 7.554C171.814 7.554 172.762 7.7687 173.52 8.198C174.295 8.6273 174.879 9.233 175.274 10.015C175.685 10.7817 175.89 11.671 175.89 12.683V20.02H172.099V13.281C172.099 12.7443 171.98 12.2767 171.743 11.878C171.523 11.4793 171.198 11.1727 170.772 10.958C170.362 10.7433 169.88 10.6437 169.327 10.659C168.853 10.659 168.426 10.7433 168.047 10.912C167.668 11.0653 167.336 11.2723 167.052 11.533C166.784 11.7937 166.578 12.0773 166.436 12.384C166.31 12.6907 166.247 12.9973 166.247 13.304V20.02H164.351C163.799 20.02 163.364 20.02 163.048 20.02C162.733 20.02 162.527 20.02 162.432 20.02ZM187.769 20.25C186.3 20.25 184.99 20.0583 183.836 19.675C182.684 19.2917 181.751 18.732 181.041 17.996L183.362 16.018C183.9 16.5087 184.564 16.892 185.353 17.168C186.158 17.4287 187.019 17.559 187.935 17.559C188.22 17.559 188.497 17.5437 188.765 17.513C189.033 17.4823 189.27 17.421 189.475 17.329C189.697 17.237 189.863 17.1297 189.973 17.007C190.1 16.869 190.163 16.7157 190.163 16.547C190.163 16.2403 189.949 16.0027 189.523 15.834C189.255 15.742 188.891 15.6577 188.433 15.581C187.975 15.489 187.485 15.397 186.964 15.305C186.033 15.1363 185.219 14.9523 184.523 14.753C183.829 14.5537 183.252 14.2853 182.794 13.948C182.367 13.626 182.036 13.258 181.799 12.844C181.578 12.43 181.467 11.9317 181.467 11.349C181.467 10.751 181.626 10.222 181.941 9.762C182.273 9.302 182.716 8.9033 183.268 8.566C183.836 8.2287 184.484 7.9757 185.211 7.807C185.938 7.6383 186.711 7.554 187.533 7.554C188.307 7.554 189.073 7.623 189.831 7.761C190.589 7.899 191.316 8.106 192.011 8.382C192.706 8.658 193.314 9.003 193.835 9.417L191.892 11.648C191.529 11.3873 191.095 11.1497 190.589 10.935C190.1 10.705 189.57 10.5287 189.002 10.406C188.449 10.268 187.896 10.199 187.343 10.199C187.043 10.199 186.767 10.2143 186.514 10.245C186.261 10.2757 186.024 10.3293 185.803 10.406C185.598 10.4827 185.432 10.5823 185.305 10.705C185.195 10.8277 185.139 10.9733 185.139 11.142C185.139 11.2647 185.18 11.3873 185.258 11.51C185.337 11.6173 185.456 11.717 185.613 11.809C185.85 11.947 186.206 12.0773 186.68 12.2C187.17 12.3073 187.746 12.4223 188.409 12.545C189.468 12.7137 190.369 12.9283 191.11 13.189C191.853 13.4497 192.437 13.7487 192.864 14.086C193.243 14.362 193.512 14.6763 193.669 15.029C193.828 15.3817 193.906 15.7803 193.906 16.225C193.906 17.0223 193.645 17.7277 193.124 18.341C192.603 18.939 191.877 19.4067 190.944 19.744C190.029 20.0813 188.971 20.25 187.769 20.25Z" fill="#FFDED2"/>
<path d="M61.2968 20.25C59.8278 20.25 58.5167 20.0583 57.3637 19.675C56.2107 19.2917 55.2787 18.732 54.5679 17.996L56.8898 16.018C57.4269 16.5087 58.0903 16.892 58.8801 17.168C59.6857 17.4287 60.5466 17.559 61.4627 17.559C61.747 17.559 62.0234 17.5437 62.2919 17.513C62.5605 17.4823 62.7974 17.421 63.0027 17.329C63.2239 17.237 63.3898 17.1297 63.5003 17.007C63.6267 16.869 63.6899 16.7157 63.6899 16.547C63.6899 16.2403 63.4766 16.0027 63.0501 15.834C62.7816 15.742 62.4183 15.6577 61.9602 15.581C61.5021 15.489 61.0125 15.397 60.4912 15.305C59.5593 15.1363 58.7459 14.9523 58.0508 14.753C57.3558 14.5537 56.7793 14.2853 56.3212 13.948C55.8947 13.626 55.563 13.258 55.3261 12.844C55.1049 12.43 54.9944 11.9317 54.9944 11.349C54.9944 10.751 55.1523 10.222 55.4682 9.762C55.7999 9.302 56.2422 8.9033 56.7951 8.566C57.3637 8.2287 58.0114 7.9757 58.7379 7.807C59.4645 7.6383 60.2385 7.554 61.0599 7.554C61.8338 7.554 62.6 7.623 63.3582 7.761C64.1163 7.899 64.8429 8.106 65.5379 8.382C66.233 8.658 66.8411 9.003 67.3623 9.417L65.4195 11.648C65.0561 11.3873 64.6218 11.1497 64.1163 10.935C63.6267 10.705 63.0975 10.5287 62.5289 10.406C61.976 10.268 61.4232 10.199 60.8703 10.199C60.5703 10.199 60.2938 10.2143 60.0411 10.245C59.7884 10.2757 59.5514 10.3293 59.3303 10.406C59.125 10.4827 58.9591 10.5823 58.8327 10.705C58.7222 10.8277 58.6668 10.9733 58.6668 11.142C58.6668 11.2647 58.7063 11.3873 58.7853 11.51C58.8643 11.6173 58.9828 11.717 59.1407 11.809C59.3776 11.947 59.733 12.0773 60.2069 12.2C60.6965 12.3073 61.2731 12.4223 61.9365 12.545C62.9948 12.7137 63.8952 12.9283 64.6376 13.189C65.38 13.4497 65.9644 13.7487 66.3909 14.086C66.77 14.362 67.0386 14.6763 67.1965 15.029C67.3544 15.3817 67.4334 15.7803 67.4334 16.225C67.4334 17.0223 67.1728 17.7277 66.6515 18.341C66.1303 18.939 65.4037 19.4067 64.4717 19.744C63.5556 20.0813 62.4973 20.25 61.2968 20.25ZM72.6562 20.02V3H76.3998V10.797L75.4283 11.119C75.5862 10.475 75.9259 9.8923 76.4471 9.371C76.9842 8.8343 77.6396 8.3973 78.4137 8.06C79.2034 7.7227 80.0485 7.554 80.9489 7.554C82.0862 7.554 83.0339 7.7763 83.7921 8.221C84.5503 8.6503 85.1268 9.2483 85.5217 10.015C85.9166 10.7817 86.1141 11.6633 86.1141 12.66V20.02H82.3231V13.327C82.3231 12.7597 82.2047 12.2767 81.9677 11.878C81.7465 11.4793 81.4306 11.1803 81.02 10.981C80.6093 10.7663 80.1196 10.6513 79.551 10.636C79.1086 10.636 78.6901 10.7127 78.2952 10.866C77.9161 11.0193 77.5844 11.2263 77.3001 11.487C77.0315 11.7477 76.8262 12.039 76.6841 12.361C76.5419 12.683 76.4708 13.028 76.4708 13.396V20.02H74.5754C74.0225 20.02 73.5881 20.02 73.2722 20.02C72.9563 20.02 72.751 20.02 72.6562 20.02ZM99.4155 20.25C97.8991 20.25 96.5486 19.9817 95.3639 19.445C94.1792 18.893 93.2474 18.1417 92.5681 17.191C91.9047 16.225 91.573 15.1287 91.573 13.902C91.573 12.66 91.9047 11.5637 92.5681 10.613C93.2474 9.6623 94.1792 8.9187 95.3639 8.382C96.5486 7.83 97.8991 7.554 99.4155 7.554C100.964 7.554 102.322 7.83 103.491 8.382C104.66 8.9187 105.576 9.6623 106.239 10.613C106.918 11.5637 107.258 12.66 107.258 13.902C107.258 15.1287 106.918 16.225 106.239 17.191C105.576 18.1417 104.66 18.893 103.491 19.445C102.322 19.9817 100.964 20.25 99.4155 20.25ZM99.4392 17.076C100.182 17.076 100.853 16.9457 101.453 16.685C102.069 16.409 102.551 16.0333 102.898 15.558C103.262 15.0827 103.435 14.5307 103.42 13.902C103.435 13.2733 103.262 12.7213 102.898 12.246C102.551 11.7553 102.069 11.3797 101.453 11.119C100.853 10.843 100.182 10.705 99.4392 10.705C98.681 10.705 97.9939 10.843 97.3778 11.119C96.7618 11.3797 96.2797 11.7553 95.9325 12.246C95.5851 12.7213 95.4113 13.2733 95.4113 13.902C95.4113 14.5307 95.5851 15.0827 95.9325 15.558C96.2797 16.0333 96.7618 16.409 97.3778 16.685C97.9939 16.9457 98.681 17.076 99.4392 17.076ZM112.824 25.08V7.784H116.425L116.591 10.544L115.857 10.337C115.967 9.8617 116.283 9.417 116.804 9.003C117.326 8.589 117.974 8.2517 118.747 7.991C119.521 7.715 120.367 7.577 121.282 7.577C122.577 7.577 123.707 7.8453 124.671 8.382C125.65 8.9187 126.416 9.6623 126.969 10.613C127.522 11.5483 127.798 12.6447 127.798 13.902C127.798 15.144 127.514 16.2403 126.945 17.191C126.392 18.1417 125.627 18.8853 124.647 19.422C123.667 19.9587 122.538 20.227 121.259 20.227C120.327 20.227 119.466 20.089 118.676 19.813C117.903 19.537 117.255 19.1767 116.733 18.732C116.228 18.272 115.912 17.8043 115.786 17.329L116.662 17.007V25.08H112.824ZM120.311 17.122C121.069 17.122 121.733 16.9917 122.301 16.731C122.87 16.455 123.305 16.0793 123.604 15.604C123.921 15.1133 124.078 14.546 124.078 13.902C124.078 13.258 123.921 12.6983 123.604 12.223C123.305 11.7323 122.87 11.3567 122.301 11.096C121.748 10.82 121.085 10.682 120.311 10.682C119.553 10.682 118.881 10.82 118.297 11.096C117.728 11.372 117.294 11.7553 116.994 12.246C116.694 12.7213 116.544 13.2733 116.544 13.902C116.544 14.546 116.694 15.1133 116.994 15.604C117.294 16.0793 117.728 16.455 118.297 16.731C118.881 16.9917 119.553 17.122 120.311 17.122ZM133.394 20.02V3H137.185V20.02H133.394ZM150.27 20.25C148.675 20.25 147.277 19.9817 146.076 19.445C144.891 18.893 143.967 18.1417 143.304 17.191C142.657 16.2403 142.333 15.167 142.333 13.971C142.333 13.005 142.522 12.131 142.901 11.349C143.297 10.5517 143.834 9.877 144.512 9.325C145.192 8.7577 145.981 8.3207 146.882 8.014C147.799 7.7073 148.77 7.554 149.796 7.554C150.808 7.554 151.739 7.7073 152.592 8.014C153.461 8.3207 154.211 8.75 154.843 9.302C155.491 9.8387 155.98 10.4827 156.312 11.234C156.66 11.9853 156.818 12.8133 156.786 13.718L156.762 14.799H144.891L144.347 12.591H153.682L153.279 13.074V12.614C153.232 12.2 153.05 11.8397 152.734 11.533C152.419 11.2263 152.008 10.9887 151.502 10.82C151.013 10.636 150.459 10.544 149.843 10.544C149.085 10.544 148.406 10.659 147.806 10.889C147.206 11.119 146.732 11.4717 146.384 11.947C146.052 12.407 145.887 12.9897 145.887 13.695C145.887 14.3543 146.084 14.9447 146.479 15.466C146.875 15.972 147.443 16.3783 148.185 16.685C148.928 16.9763 149.796 17.122 150.791 17.122C151.708 17.122 152.466 17.0223 153.066 16.823C153.666 16.6083 154.172 16.363 154.582 16.087L156.264 18.479C155.728 18.8623 155.135 19.1843 154.487 19.445C153.84 19.7057 153.153 19.905 152.426 20.043C151.715 20.181 150.997 20.25 150.27 20.25ZM162.432 20.02V7.807H166.033L166.175 10.797L165.228 11.05C165.434 10.4367 165.789 9.8693 166.294 9.348C166.815 8.8113 167.448 8.382 168.189 8.06C168.948 7.7227 169.777 7.554 170.677 7.554C171.814 7.554 172.762 7.7687 173.52 8.198C174.295 8.6273 174.879 9.233 175.274 10.015C175.685 10.7817 175.89 11.671 175.89 12.683V20.02H172.099V13.281C172.099 12.7443 171.98 12.2767 171.743 11.878C171.523 11.4793 171.198 11.1727 170.772 10.958C170.362 10.7433 169.88 10.6437 169.327 10.659C168.853 10.659 168.426 10.7433 168.047 10.912C167.668 11.0653 167.336 11.2723 167.052 11.533C166.784 11.7937 166.578 12.0773 166.436 12.384C166.31 12.6907 166.247 12.9973 166.247 13.304V20.02H164.351C163.799 20.02 163.364 20.02 163.048 20.02C162.733 20.02 162.527 20.02 162.432 20.02ZM187.769 20.25C186.3 20.25 184.99 20.0583 183.836 19.675C182.684 19.2917 181.751 18.732 181.041 17.996L183.362 16.018C183.9 16.5087 184.564 16.892 185.353 17.168C186.158 17.4287 187.019 17.559 187.935 17.559C188.22 17.559 188.497 17.5437 188.765 17.513C189.033 17.4823 189.27 17.421 189.475 17.329C189.697 17.237 189.863 17.1297 189.973 17.007C190.1 16.869 190.163 16.7157 190.163 16.547C190.163 16.2403 189.949 16.0027 189.523 15.834C189.255 15.742 188.891 15.6577 188.433 15.581C187.975 15.489 187.485 15.397 186.964 15.305C186.033 15.1363 185.219 14.9523 184.523 14.753C183.829 14.5537 183.252 14.2853 182.794 13.948C182.367 13.626 182.036 13.258 181.799 12.844C181.578 12.43 181.467 11.9317 181.467 11.349C181.467 10.751 181.626 10.222 181.941 9.762C182.273 9.302 182.716 8.9033 183.268 8.566C183.836 8.2287 184.484 7.9757 185.211 7.807C185.938 7.6383 186.711 7.554 187.533 7.554C188.307 7.554 189.073 7.623 189.831 7.761C190.589 7.899 191.316 8.106 192.011 8.382C192.706 8.658 193.314 9.003 193.835 9.417L191.892 11.648C191.529 11.3873 191.095 11.1497 190.589 10.935C190.1 10.705 189.57 10.5287 189.002 10.406C188.449 10.268 187.896 10.199 187.343 10.199C187.043 10.199 186.767 10.2143 186.514 10.245C186.261 10.2757 186.024 10.3293 185.803 10.406C185.598 10.4827 185.432 10.5823 185.305 10.705C185.195 10.8277 185.139 10.9733 185.139 11.142C185.139 11.2647 185.18 11.3873 185.258 11.51C185.337 11.6173 185.456 11.717 185.613 11.809C185.85 11.947 186.206 12.0773 186.68 12.2C187.17 12.3073 187.746 12.4223 188.409 12.545C189.468 12.7137 190.369 12.9283 191.11 13.189C191.853 13.4497 192.437 13.7487 192.864 14.086C193.243 14.362 193.512 14.6763 193.669 15.029C193.828 15.3817 193.906 15.7803 193.906 16.225C193.906 17.0223 193.645 17.7277 193.124 18.341C192.603 18.939 191.877 19.4067 190.944 19.744C190.029 20.0813 188.971 20.25 187.769 20.25Z" stroke="black" stroke-width="2" mask="url(#path-2-outside-2_4791_65)"/>
<path d="M24.2119 0.5L24.3516 0.767578L25.9883 3.89258L26.3721 4.625H23.8867C25.1176 5.15339 26.2377 5.87464 27.2061 6.75H37.5V23.375H27.2061C25.0631 25.3121 22.1754 26.5 19 26.5C15.8246 26.5 12.9369 25.3121 10.7939 23.375H0.5V19.25H7.0459V17.125H0.5V13H7.0459V10.875H0.5V6.75H10.5156L13.6484 0.767578L13.7881 0.5H24.2119ZM19 7.75C14.7354 7.75 11.3184 11.0454 11.3184 15.0625C11.3184 19.0796 14.7354 22.375 19 22.375C23.2646 22.375 26.6816 19.0796 26.6816 15.0625C26.6816 11.0454 23.2646 7.75 19 7.75ZM30.9541 19.25H33.2275V17.125H30.9541V19.25ZM30.9541 13H33.2275V10.875H30.9541V13Z" fill="#F78574" stroke="black"/>
<path d="M27.2119 0.5L27.3516 0.767578L28.9883 3.89258L29.3721 4.625H26.8867C28.1176 5.15339 29.2377 5.87464 30.2061 6.75H40.5V23.375H30.2061C28.0631 25.3121 25.1754 26.5 22 26.5C18.8246 26.5 15.9369 25.3121 13.7939 23.375H3.5V19.25H10.0459V17.125H3.5V13H10.0459V10.875H3.5V6.75H13.5156L16.6484 0.767578L16.7881 0.5H27.2119ZM22 7.75C17.7354 7.75 14.3184 11.0454 14.3184 15.0625C14.3184 19.0796 17.7354 22.375 22 22.375C26.2646 22.375 29.6816 19.0796 29.6816 15.0625C29.6816 11.0454 26.2646 7.75 22 7.75ZM33.9541 19.25H36.2275V17.125H33.9541V19.25ZM33.9541 13H36.2275V10.875H33.9541V13Z" fill="#FFDED2" stroke="black"/>
</svg>
